<svg xmlns="http://www.w3.org/2000/svg" width="48" height="48" viewBox="0 0 48 48">
  <path fill-rule="evenodd" d="M20 32v8h8v-8h-8zm0-4v-8h8v8h-8zm20 4v6c0 1.106-.891 2-1.99 2H32v-8h8zm0-4v-8h-8v8h8zM8 32v6c0 1.105.893 2 1.99 2H16v-8H8zm0-4v-8h8v8H8zm32-12v-4c0-1.105-.893-2-1.99-2H38c0 1.105-.888 2-2 2-1.105 0-2-.887-2-2h-4c0 1.105-.888 2-2 2-1.105 0-2-.887-2-2h-4c0 1.105-.888 2-2 2-1.105 0-2-.887-2-2h-4c0 1.105-.888 2-2 2-1.105 0-2-.887-2-2h-.01C8.891 10 8 10.894 8 12v4h32zM34 6h-4V4c0-1.113-.895-2-2-2-1.112 0-2 .895-2 2v2h-4V4c0-1.113-.895-2-2-2-1.112 0-2 .895-2 2v2h-4V4c0-1.113-.895-2-2-2-1.112 0-2 .895-2 2v2h-.01A5.994 5.994 0 0 0 4 12v26c0 3.312 2.681 6 5.99 6h28.02c3.31 0 5.99-2.687 5.99-6V12c0-3.312-2.681-6-5.99-6H38V4c0-1.113-.895-2-2-2-1.112 0-2 .895-2 2v2z"/>
</svg>
